<svg width="184" height="48" viewBox="0 0 184 48" fill="none" xmlns="http://www.w3.org/2000/svg">
<g clip-path="url(#clip0_259_2094)">
<mask id="mask0_259_2094" style="mask-type:luminance" maskUnits="userSpaceOnUse" x="0" y="0" width="184" height="48">
<path d="M184 0H0V48H184V0Z" fill="white"/>
</mask>
<g mask="url(#mask0_259_2094)">
<path d="M0 0V42.1398H40.0598V0H0ZM35.9391 19.4334L33.4052 4.33282H35.9391V19.4334ZM33.7144 31.1329L23.0853 33.1027L31.2924 29.9656L33.3848 29.1662L33.7144 31.1362V31.1329ZM6.3726 11.0105L17.0015 9.04037L8.79457 12.1776L6.7021 12.977L6.3726 11.0069V11.0105ZM29.8824 25.8934L23.2994 28.4096L26.9578 26.1896L29.4613 24.6728L29.8824 25.8934ZM10.2077 16.2534L16.7909 13.7372L13.1324 15.9572L10.6289 17.474L10.2077 16.2534ZM23.4726 11.1818L24.6343 10.7392L27.0291 17.656L24.9163 13.8122L23.4726 11.1818ZM24.8959 22.4421L18.7441 26.1718L15.1943 19.7082L21.3461 15.9786L24.8959 22.4421ZM15.174 28.3417L16.6177 30.9722L15.4559 31.4148L13.0611 24.4979L15.174 28.3417ZM27.7459 7.056L29.6177 6.70979L31.4894 17.8559L27.7493 7.056H27.7459ZM11.5834 32.8958L12.3477 35.098L10.4761 35.4441L8.60436 24.298L11.5834 32.8958ZM18.6524 4.33282L5.65924 6.73835L4.12045 7.02386V4.33282H18.6524ZM4.12045 22.5349L6.41335 36.1902L6.68511 37.8067H4.12045V22.5349ZM21.4378 37.8067L35.9391 35.1193V37.8067H21.4378Z" fill="#1E1E1E"/>
<path d="M138.43 33.4556V4.35352H134.313V37.7847H140.492V33.4556H138.43Z" fill="#1E1E1E"/>
<path d="M145.642 37.8062V4.35352H141.521V37.7847L145.642 37.8062Z" fill="#1E1E1E"/>
<path d="M146.671 4.35352V8.68275H148.73V37.7847H152.85V8.68275H154.909V4.35352H146.671Z" fill="#1E1E1E"/>
<path d="M48.8237 37.7854L59.1231 37.807V37.7854V22.1531H55.0059V33.4563H52.9441V8.66211H48.8237V37.7854Z" fill="#1E1E1E"/>
<path d="M52.9438 4.33398V8.66322H55.0056V19.9878H59.1228V4.3554V4.33398H52.9438Z" fill="#1E1E1E"/>
<path d="M66.3343 33.4575H64.2725V8.66322H66.3343V33.4575H70.455V4.3554V4.33398H60.1553V4.3554V37.7866H66.3343V33.4575Z" fill="#1E1E1E"/>
<path d="M75.6011 4.33398V8.66322H71.4839V23.2356H77.6629V33.4575H75.6046V25.3985H71.4839V37.7866L81.7836 37.8078V37.7866V18.9064H75.6046V8.66322H77.6629V16.7435H81.7836V4.3554V4.33398H75.6011Z" fill="#1E1E1E"/>
<path d="M99.2952 8.66211H95.1748V37.7854H99.2952V8.66211Z" fill="#1E1E1E"/>
<path d="M82.813 4.33398V4.3554V37.7866H86.9337V8.66322H88.992V37.7866H93.1124V8.66322H95.171V4.33398H82.813Z" fill="#1E1E1E"/>
<path d="M100.324 4.33398V4.3554V33.4575H104.441V8.66322H106.503V33.4575H104.445V37.7866H110.624V4.3554V4.33398H100.324Z" fill="#1E1E1E"/>
<path d="M115.774 4.33398V8.66322H117.832V18.9064H115.774V8.66322H111.653V37.7866H115.774V23.2356H121.953V4.3554V4.33398H115.774Z" fill="#1E1E1E"/>
<path d="M129.163 8.66322V33.4575H127.101V8.66322H129.163V4.33398H122.981V4.3554V37.7866H133.28V8.66322H129.163Z" fill="#1E1E1E"/>
<path d="M160.058 4.33398V8.66322H162.12V18.8636H160.058V8.66322H155.941V37.7866H160.058V23.1928H162.12V37.7866H166.241V4.3554V4.33398H160.058Z" fill="#1E1E1E"/>
<path d="M183.748 4.35352H179.628V33.4555H183.748V4.35352Z" fill="#1E1E1E"/>
<path d="M179.628 37.7866V33.4575H177.57V4.3554V4.33398H167.271V4.3554V37.7866H171.391V8.66322H173.45V37.7866H179.628Z" fill="#1E1E1E"/>
<path d="M51.0182 43.4956C51.3103 43.3491 51.6498 43.2744 52.0406 43.2744C52.3803 43.2744 52.6825 43.3279 52.9476 43.4315C53.2092 43.5348 53.4263 43.6848 53.5896 43.8774C53.756 44.07 53.8612 44.2985 53.9123 44.5628H55.1962C55.142 44.088 54.9753 43.6706 54.697 43.3099C54.4184 42.9496 54.0516 42.6674 53.5962 42.4678C53.1411 42.2679 52.6249 42.168 52.0472 42.168C51.4121 42.168 50.8483 42.2892 50.3592 42.5356C49.8701 42.7783 49.4928 43.1207 49.2246 43.5597C48.9561 43.9987 48.8237 44.5057 48.8237 45.0838C48.8237 45.6619 48.9561 46.1687 49.2246 46.6077C49.4928 47.0467 49.8701 47.3893 50.3592 47.6321C50.8483 47.8748 51.4087 47.9997 52.0472 47.9997C52.6249 47.9997 53.1411 47.8997 53.5962 47.6998C54.0516 47.4999 54.4184 47.2216 54.697 46.8577C54.9753 46.4971 55.142 46.0797 55.1962 45.6048H53.9123C53.8612 45.8725 53.756 46.1046 53.5896 46.2972C53.4232 46.4901 53.2092 46.6362 52.9476 46.7398C52.686 46.8434 52.3838 46.8932 52.0406 46.8932C51.6498 46.8932 51.3103 46.8182 51.0182 46.6721C50.726 46.5256 50.5051 46.3151 50.3488 46.0438C50.1925 45.7725 50.1146 45.4514 50.1146 45.0838C50.1146 44.7162 50.1925 44.3951 50.3488 44.1238C50.5051 43.8525 50.726 43.642 51.0182 43.4956Z" fill="#1E1E1E"/>
<path d="M63.6987 42.283L61.0596 47.8899H62.4217L62.9584 46.7084H66.0801L66.6168 47.8899H67.9754L65.3363 42.283H63.6987ZM63.4236 45.677L64.5175 43.2643L65.6114 45.677H63.4236Z" fill="#1E1E1E"/>
<path d="M78.7268 45.5417C79.0394 45.3989 79.284 45.1954 79.4605 44.9314C79.6373 44.6707 79.7221 44.3675 79.7221 44.0248C79.7221 43.6821 79.6338 43.3787 79.4605 43.111C79.284 42.847 79.0394 42.6435 78.7268 42.4973C78.4142 42.3546 78.0542 42.2795 77.6464 42.2795H74.4365V47.8864H75.7138V45.7559H76.6921L78.387 47.8864H79.8818L78.122 45.7164C78.336 45.6808 78.5364 45.6237 78.7199 45.5417H78.7268ZM75.717 44.7707V43.2823H77.497C77.7826 43.2823 78.0101 43.3501 78.1765 43.4786C78.3429 43.6108 78.4277 43.7927 78.4277 44.0212C78.4277 44.2496 78.3429 44.4389 78.1765 44.5708C78.0101 44.7029 77.7826 44.767 77.497 44.767H75.717V44.7707Z" fill="#1E1E1E"/>
<path d="M94.7335 42.6327C94.2374 42.3972 93.6635 42.283 93.0111 42.283H90.3345V47.8899H93.0111C93.6635 47.8899 94.2374 47.772 94.7335 47.5402C95.2292 47.3045 95.6165 46.9761 95.8917 46.555C96.1668 46.1303 96.3061 45.6415 96.3061 45.0883C96.3061 44.535 96.1668 44.0459 95.8917 43.6212C95.6165 43.1965 95.2292 42.8681 94.7335 42.6363V42.6327ZM94.7776 45.9662C94.6213 46.2196 94.4004 46.4158 94.1117 46.555C93.823 46.6941 93.4902 46.7655 93.1098 46.7655H91.6083V43.4H93.1098C93.4902 43.4 93.8264 43.4714 94.1117 43.6106C94.4004 43.7497 94.6213 43.946 94.7776 44.1993C94.9339 44.453 95.0121 44.7492 95.0121 45.081C95.0121 45.413 94.9339 45.7092 94.7776 45.9626V45.9662Z" fill="#1E1E1E"/>
<path d="M114.163 43.4037H116.409V47.8862H117.679V43.4037H119.921V42.283H114.163V43.4037Z" fill="#1E1E1E"/>
<path d="M127.632 42.283L124.993 47.8899H126.355L126.892 46.7084H130.013L130.55 47.8899H131.909L129.269 42.283H127.632ZM127.357 45.677L128.451 43.2643L129.545 45.677H127.357Z" fill="#1E1E1E"/>
<path d="M147.401 42.283H146.124V47.8862H151.056V46.7655H147.401V42.283Z" fill="#1E1E1E"/>
<path d="M158.601 42.283H157.324V47.8899H158.601V42.283Z" fill="#1E1E1E"/>
<path d="M139.324 42.283H138.047V47.8899H139.324V42.283Z" fill="#1E1E1E"/>
<path d="M169.855 46.4587L166.73 42.283H165.076V47.8862H166.309V43.6355L169.481 47.8862H171.098V42.283H169.855V46.4587Z" fill="#1E1E1E"/>
<path d="M181.075 45.0553V45.9761H182.842C182.801 46.0617 182.753 46.1438 182.692 46.2224C182.516 46.4579 182.271 46.6362 181.969 46.7647C181.666 46.8932 181.306 46.954 180.902 46.954C180.498 46.954 180.124 46.879 179.819 46.7328C179.513 46.5864 179.278 46.3722 179.112 46.0939C178.946 45.8154 178.864 45.48 178.864 45.0838C178.864 44.6877 178.942 44.3629 179.098 44.0843C179.255 43.8097 179.475 43.5992 179.768 43.4564C180.06 43.3136 180.403 43.2422 180.797 43.2422C181.293 43.2422 181.707 43.3421 182.037 43.5384C182.366 43.7347 182.573 44.0059 182.652 44.3486H183.936C183.864 43.9203 183.694 43.542 183.419 43.2136C183.148 42.8852 182.787 42.6282 182.339 42.4426C181.894 42.257 181.378 42.168 180.79 42.168C180.175 42.168 179.622 42.2855 179.132 42.5176C178.643 42.7531 178.259 43.0888 177.981 43.5278C177.702 43.9668 177.563 44.4841 177.563 45.0838C177.563 45.6835 177.702 46.1939 177.981 46.6362C178.259 47.0789 178.636 47.4142 179.112 47.65C179.588 47.8854 180.124 47.9997 180.722 47.9997C181.32 47.9997 181.809 47.8854 182.23 47.6606C182.546 47.4893 182.804 47.2751 183.008 47.0111L183.076 47.8891H183.993V45.0553H181.069H181.075Z" fill="#1E1E1E"/>
<path d="M107.835 46.8333H104.068V45.5701H104.384H107.638V44.5991H104.384H104.068V43.3356H104.183H107.835V42.283H104.068H102.797V47.8862H104.068H107.872V46.8333H107.835Z" fill="#1E1E1E"/>
<path d="M4.12012 37.8072H6.68138L4.12012 22.5352V37.8072Z" fill="#19BFF6"/>
<path d="M10.4728 35.4372L8.60449 24.291L12.3445 35.0909L10.4728 35.4372Z" fill="#19BFF6"/>
<path d="M15.4559 31.4089L13.061 24.4922L16.6176 30.9666L15.4559 31.4089Z" fill="#19BFF6"/>
<path d="M27.0292 17.6494L23.4727 11.1788L24.631 10.7326L27.0292 17.6494Z" fill="#19BFF6"/>
<path d="M31.4861 17.8492L27.7461 7.04933L29.6178 6.70312L31.4861 17.8492Z" fill="#19BFF6"/>
<path d="M35.9387 19.4346L33.4048 4.33398H35.9387V19.4346Z" fill="#19BFF6"/>
<path d="M10.6292 17.4712L16.7878 13.7344L10.208 16.2505L10.6292 17.4712Z" fill="#F93D46"/>
<path d="M6.70543 12.9757L17.0014 9.03906L6.37256 11.0092L6.70543 12.9757Z" fill="#F93D46"/>
<path d="M4.12012 7.02861L18.6521 4.33398H4.12012V7.02861Z" fill="#F93D46"/>
<path d="M23.2998 28.4068L29.4618 24.6736L29.8829 25.8907L23.2998 28.4068Z" fill="#F93D46"/>
<path d="M23.0884 33.1008L33.3844 29.1641L33.714 31.1343L23.0884 33.1008Z" fill="#F93D46"/>
<path d="M21.438 37.8065L35.9393 35.1191V37.8065H21.438Z" fill="#F93D46"/>
<path d="M21.3437 15.9727L15.1924 19.7041L18.7438 26.1671L24.8952 22.4357L21.3437 15.9727Z" fill="#19BFF6"/>
<path d="M70.4552 33.457H66.3345V37.7864H70.4552V33.457Z" fill="#19BFF6"/>
<path d="M52.9441 4.33398H48.8237V8.66322H52.9441V4.33398Z" fill="#F93D46"/>
<path d="M75.6011 4.33398H71.4839V8.66322H75.6011V4.33398Z" fill="#F93D46"/>
<path d="M99.2918 4.35352H95.1714V8.66133H99.2918V4.35352Z" fill="#19BFF6"/>
<path d="M104.445 33.457H100.324V37.7864H104.445V33.457Z" fill="#F93D46"/>
<path d="M115.774 4.33398H111.653V8.66322H115.774V4.33398Z" fill="#19BFF6"/>
<path d="M133.284 4.33398H129.164V8.66322H133.284V4.33398Z" fill="#F93D46"/>
<path d="M160.062 4.33398H155.941V8.66322H160.062V4.33398Z" fill="#19BFF6"/>
<path d="M183.748 33.457H179.628V37.7864H183.748V33.457Z" fill="#F93D46"/>
</g>
</g>
<defs>
<clipPath id="clip0_259_2094">
<rect width="184" height="48" fill="white"/>
</clipPath>
</defs>
</svg>
